# xmcd CD database file
#
# Track frame offsets:
#	150
#	18200
#	35595
#	51029
#	69736
#	88231
#	109218
#	125418
#	143892
#	166959
#	185654
#	204266
#	222281
#	240273
#	257425
#	274724
#	294573
#	312250
#
# Disc length: 4393 seconds
#
# Revision: 0
# Processed by: cddbd v1.5.1PL0 Copyright (c) Steve Scherf et al.
# Submitted via: CDex 1.51
#
DISCID=06112712
DTITLE=Southern All Stars - Best Sellection Vol.1
DYEAR=2000
DGENRE=JPop
TTITLE0=勝手にシンドバッド
TTITLE1=当たって砕けろ
TTITLE2=茅ヶ崎に背を向けて
TTITLE3=女呼んでブギ
TTITLE4=お願いD.J.
TTITLE5=思い過ごしも恋のうち
TTITLE6=気分しだいで責めないで
TTITLE7=Let It Boogie
TTITLE8=ふたりだけのパーティ〜 Tiny Bubbles(Type-A)
TTITLE9=Hey! Ryudo!
TTITLE10=涙のアベニュー
TTITLE11=Hello My Love
TTITLE12=My Foreplay Music
TTITLE13=DJ・コービーの伝説
TTITLE14=逢いたさ見たさ病めるMy Mind
TTITLE15=マチルダBABY
TTITLE16=NEVER FALL IN LOVE AGAIN
TTITLE17=MICO
EXTD=YEAR: 2000
EXTT0=
EXTT1=
EXTT2=
EXTT3=
EXTT4=
EXTT5=
EXTT6=
EXTT7=
EXTT8=
EXTT9=
EXTT10=
EXTT11=
EXTT12=
EXTT13=
EXTT14=
EXTT15=
EXTT16=
EXTT17=
PLAYORDER=
